<?xml version="1.0" encoding="UTF-8"?>
<svg width="292px" height="202px" viewBox="0 0 292 202" version="1.1" xmlns="http://www.w3.org/2000/svg" xmlns:xlink="http://www.w3.org/1999/xlink">
    <!-- Generator: Sketch 52.5 (67469) - http://www.bohemiancoding.com/sketch -->
    <title>Combined Shape</title>
    <desc>Created with Sketch.</desc>
    <g id="Welcome" stroke="none" stroke-width="1" fill="none" fill-rule="evenodd">
        <g id="Desktop-HD" transform="translate(-494.000000, -327.000000)" fill="#379683">
            <path d="M605.659424,400 L601.596924,382.861328 L600.644775,377.687988 L600.01001,373.530273 L599.81958,373.530273 C598.782791,379.454782 598.084556,383.189283 597.724854,384.733887 L594.074951,400 L581.030518,400 L571.223389,364.040527 L583.442627,364.040527 L586.362549,377.84668 C587.293543,382.586287 587.833088,386.521794 587.981201,389.65332 L588.171631,389.65332 C588.235108,387.706696 588.81697,384.003934 589.917236,378.544922 L593.249756,364.040527 L606.960693,364.040527 L610.007568,378.735352 C610.980881,383.411482 611.594481,387.050768 611.848389,389.65332 L612.038818,389.65332 C612.165772,388.045239 612.377359,386.040458 612.673584,383.638916 C612.969809,381.237374 613.297768,379.306648 613.657471,377.84668 L616.831299,364.040527 L628.796631,364.040527 L618.926025,400 L605.659424,400 Z M651.235596,400.634766 C645.24761,400.634766 640.597998,399.042578 637.286621,395.858154 C633.975244,392.673731 632.31958,388.140492 632.31958,382.258301 C632.31958,376.185679 633.853582,371.525488 636.921631,368.277588 C639.98968,365.029688 644.369519,363.405762 650.061279,363.405762 C655.477973,363.405762 659.662095,364.818101 662.61377,367.642822 C665.565444,370.467543 667.04126,374.535292 667.04126,379.846191 L667.04126,385.368652 L644.856201,385.368652 C644.940837,387.378754 645.6761,388.955072 647.062012,390.097656 C648.447924,391.24024 650.336332,391.811523 652.727295,391.811523 C654.906668,391.811523 656.911449,391.605227 658.741699,391.192627 C660.571949,390.780027 662.555572,390.076502 664.692627,389.082031 L664.692627,398.000488 C662.746003,398.994959 660.735932,399.682615 658.662354,400.063477 C656.588775,400.444338 654.113214,400.634766 651.235596,400.634766 Z M650.505615,371.848145 C649.045647,371.848145 647.823735,372.308345 646.839844,373.22876 C645.855952,374.149175 645.279379,375.593252 645.110107,377.561035 L655.77417,377.561035 C655.731852,375.826 655.239914,374.440109 654.29834,373.40332 C653.356766,372.366531 652.092537,371.848145 650.505615,371.848145 Z M696.018311,363.405762 C699.932718,363.405762 703.037749,365.045557 705.333496,368.325195 C707.629243,371.604834 708.7771,376.143363 708.7771,381.940918 C708.7771,387.780791 707.618664,392.356347 705.301758,395.667725 C702.984852,398.979102 699.763448,400.634766 695.637451,400.634766 C694.304437,400.634766 693.119553,400.491945 692.082764,400.206299 C691.045975,399.920653 690.120284,399.523928 689.305664,399.016113 C688.491044,398.508298 687.544195,397.661953 686.465088,396.477051 L685.703369,396.477051 L683.735596,400 L674.05542,400 L674.05542,350.615234 L686.465088,350.615234 L686.465088,361.787109 C686.465088,363.120124 686.316977,365.415837 686.020752,368.674316 L686.465088,368.674316 C687.671149,366.812328 689.062329,365.468754 690.638672,364.643555 C692.215014,363.818355 694.008209,363.405762 696.018311,363.405762 Z M691.479736,373.149414 C689.744702,373.149414 688.475183,373.752435 687.671143,374.958496 C686.867102,376.164557 686.465088,378.058255 686.465088,380.639648 L686.465088,382.385254 C686.465088,385.326349 686.867102,387.436924 687.671143,388.717041 C688.475183,389.997158 689.787019,390.637207 691.606689,390.637207 C693.066658,390.637207 694.188066,389.891365 694.970947,388.399658 C695.753829,386.907952 696.145264,384.712742 696.145264,381.813965 C696.145264,376.037569 694.590103,373.149414 691.479736,373.149414 Z M617.851807,491.993652 C621.679951,491.993652 626.273655,491.156258 631.633057,489.481445 L631.633057,505.774902 C626.177951,508.215344 619.478799,509.435547 611.5354,509.435547 C602.778521,509.435547 596.402364,507.222434 592.406738,502.796143 C588.411113,498.369851 586.41333,491.730513 586.41333,482.87793 L586.41333,444.189941 L575.933838,444.189941 L575.933838,434.930664 L587.992432,427.609375 L594.308838,410.669922 L608.30542,410.669922 L608.30542,427.75293 L630.771729,427.75293 L630.771729,444.189941 L608.30542,444.189941 L608.30542,482.87793 C608.30542,485.988297 609.178702,488.285149 610.925293,489.768555 C612.671884,491.251961 614.980699,491.993652 617.851807,491.993652 Z M703.841064,484.169922 C703.841064,492.400432 700.981962,498.668924 695.263672,502.975586 C689.545382,507.282248 680.992,509.435547 669.603271,509.435547 C663.765352,509.435547 658.788839,509.040775 654.673584,508.251221 C650.558329,507.461666 646.706317,506.301277 643.117432,504.77002 L643.117432,486.682129 C647.184835,488.596201 651.766576,490.199212 656.862793,491.491211 C661.95901,492.78321 666.445049,493.429199 670.321045,493.429199 C678.264444,493.429199 682.236084,491.132347 682.236084,486.538574 C682.236084,484.815909 681.709722,483.416265 680.656982,482.3396 C679.604243,481.262934 677.785902,480.042731 675.201904,478.678955 C672.617907,477.315179 669.172629,475.72413 664.865967,473.905762 C658.693084,471.321764 654.159194,468.92921 651.26416,466.728027 C648.369126,464.526844 646.263678,462.0027 644.947754,459.155518 C643.631829,456.308335 642.973877,452.803243 642.973877,448.640137 C642.973877,441.510218 645.737277,435.995381 651.26416,432.095459 C656.791043,428.195537 664.626658,426.245605 674.77124,426.245605 C684.437304,426.245605 693.840042,428.351053 702.979736,432.562012 L696.376221,448.353027 C692.356669,446.630362 688.600359,445.218756 685.107178,444.118164 C681.613996,443.017573 678.04909,442.467285 674.412354,442.467285 C667.95236,442.467285 664.722412,444.21385 664.722412,447.707031 C664.722412,449.668955 665.763173,451.367669 667.844727,452.803223 C669.92628,454.238777 674.484096,456.36815 681.518311,459.191406 C687.786897,461.727552 692.380601,464.09618 695.299561,466.297363 C698.21852,468.498546 700.371819,471.034654 701.759521,473.905762 C703.147224,476.77687 703.841064,480.198222 703.841064,484.169922 Z M524.010254,459.768555 C524.010254,445.842704 514.052671,438.879883 494.137207,438.879883 L494.137207,417.429688 C504.244679,417.429688 511.750301,415.726417 516.654297,412.319824 C521.558293,408.913232 524.010254,403.72855 524.010254,396.765625 L524.010254,361.838867 C524.010254,350.159121 528.071899,341.567899 536.195312,336.064941 C544.318726,330.561984 556.503662,327.810547 572.750488,327.810547 L572.750488,348.25 C564.215289,348.624351 558.019876,350.365056 554.164062,353.472168 C550.308249,356.57928 548.380371,361.202443 548.380371,367.341797 L548.380371,400.696289 C548.380371,415.595452 539.807866,424.504868 522.662598,427.424805 L522.662598,428.772461 C539.807866,431.467787 548.380371,440.339769 548.380371,455.388672 L548.380371,488.967773 C548.380371,495.107127 550.289532,499.749008 554.10791,502.893555 C557.926289,506.038102 564.140419,507.685221 572.750488,507.834961 L572.750488,528.386719 C555.45548,528.236978 543.008502,525.298368 535.40918,519.570801 C527.809858,513.843233 524.010254,504.578189 524.010254,491.775391 L524.010254,459.768555 Z M757.321289,494.246094 C757.321289,505.92584 753.596554,514.498345 746.146973,519.963867 C738.697391,525.429389 726.774496,528.236978 710.37793,528.386719 L710.37793,507.834961 C717.490595,507.760091 723.030905,506.318862 726.999023,503.51123 C730.967142,500.703599 732.951172,495.855829 732.951172,488.967773 L732.951172,459.543945 C732.951172,450.484655 734.935202,443.4844 738.90332,438.542969 C742.871439,433.601538 749.459915,430.344734 758.668945,428.772461 L758.668945,427.424805 C741.523677,424.504868 732.951172,415.595452 732.951172,400.696289 L732.951172,367.341797 C732.951172,361.202443 731.247901,356.57928 727.841309,353.472168 C724.434716,350.365056 718.613648,348.624351 710.37793,348.25 L710.37793,327.810547 C727.073977,327.810547 739.071741,330.674288 746.371582,336.401855 C753.671423,342.129423 757.321289,351.506771 757.321289,364.53418 L757.321289,396.765625 C757.321289,404.252642 759.698381,409.568344 764.452637,412.712891 C769.206892,415.857438 776.2633,417.429688 785.62207,417.429688 L785.62207,438.879883 C776.41304,438.879883 769.394067,440.47085 764.564941,443.652832 C759.735816,446.834814 757.321289,452.206668 757.321289,459.768555 L757.321289,494.246094 Z" id="Combined-Shape"></path>
        </g>
    </g>
</svg>